HIERARCHY
ROOT Hip
{
	OFFSET -0.155111 0.102342 0.178268
	CHANNELS 6 Xposition Yposition Zposition Xrotation Yrotation Zrotation
	JOINT LowerSpine
	{
		OFFSET -0.009069 0.154692 0.259715
		CHANNELS 6 Xposition Yposition Zposition Xrotation Yrotation Zrotation
		JOINT MiddleSpine
		{
			OFFSET -0.008277 -0.011152 0.237010
			CHANNELS 3 Xrotation Yrotation Zrotation
			JOINT Chest
			{
				OFFSET -0.010241 0.058786 0.293270
				CHANNELS 3 Xrotation Yrotation Zrotation
				JOINT Neck
				{
					OFFSET -0.023078 0.012376 0.660876
					CHANNELS 6 Xposition Yposition Zposition Xrotation Yrotation Zrotation
					JOINT Head
					{
						OFFSET -0.013035 -0.101573 0.373206
						CHANNELS 3 Xrotation Yrotation Zrotation
						End Site
						{
							OFFSET -0.001871 -0.001601 0.053597
						}
					}
				}
				JOINT LClavicle
				{
					OFFSET 0.037777 -0.196776 0.639876
					CHANNELS 6 Xposition Yposition Zposition Xrotation Yrotation Zrotation
					JOINT LShoulder
					{
						OFFSET 0.347619 0.148114 0.103729
						CHANNELS 3 Xrotation Yrotation Zrotation
						JOINT LForearm
						{
							OFFSET 0.828098 0.007179 0.025978
							CHANNELS 3 Xrotation Yrotation Zrotation
							JOINT LHand
							{
								OFFSET 0.690652 0.004141 0.026124
								CHANNELS 3 Xrotation Yrotation Zrotation
								JOINT LFinger1
								{
									OFFSET 0.266887 -0.074399 0.032761
									CHANNELS 6 Xposition Yposition Zposition Xrotation Yrotation Zrotation
									JOINT LFinger11
									{
										OFFSET 0.100987 -0.017654 -0.020921
										CHANNELS 3 Xrotation Yrotation Zrotation
										JOINT LFinger12
										{
											OFFSET 0.068942 -0.012057 -0.014285
											CHANNELS 3 Xrotation Yrotation Zrotation
											End Site
											{
												OFFSET 0.051300 -0.008241 -0.013382
											}
										}
									}
								}
								JOINT LFinger2
								{
									OFFSET 0.270757 -0.006476 0.036525
									CHANNELS 6 Xposition Yposition Zposition Xrotation Yrotation Zrotation
									JOINT LFinger21
									{
										OFFSET 0.123798 0.000731 0.004667
										CHANNELS 3 Xrotation Yrotation Zrotation
										JOINT LFinger22
										{
											OFFSET 0.068621 0.000417 0.002606
											CHANNELS 3 Xrotation Yrotation Zrotation
											End Site
											{
												OFFSET 0.053619 -0.000073 -0.001910
											}
										}
									}
								}
								JOINT LFinger3
								{
									OFFSET 0.256863 0.060956 0.027035
									CHANNELS 6 Xposition Yposition Zposition Xrotation Yrotation Zrotation
									JOINT LFinger31
									{
										OFFSET 0.112545 0.007039 -0.001766
										CHANNELS 3 Xrotation Yrotation Zrotation
										JOINT LFinger32
										{
											OFFSET 0.064132 0.004024 -0.000985
											CHANNELS 3 Xrotation Yrotation Zrotation
											End Site
											{
												OFFSET 0.053389 0.002514 -0.004680
											}
										}
									}
								}
								JOINT LFinger4
								{
									OFFSET 0.239578 0.105269 -0.009814
									CHANNELS 6 Xposition Yposition Zposition Xrotation Yrotation Zrotation
									JOINT LFinger41
									{
										OFFSET 0.069607 0.019087 -0.011998
										CHANNELS 3 Xrotation Yrotation Zrotation
										JOINT LFinger42
										{
											OFFSET 0.051043 0.014006 -0.008782
											CHANNELS 3 Xrotation Yrotation Zrotation
											End Site
											{
												OFFSET 0.050968 0.011591 -0.012107
											}
										}
									}
								}
								JOINT LFinger0
								{
									OFFSET 0.056842 -0.042008 -0.039982
									CHANNELS 6 Xposition Yposition Zposition Xrotation Yrotation Zrotation
									JOINT LFinger01
									{
										OFFSET 0.104288 -0.077784 -0.030259
										CHANNELS 3 Xrotation Yrotation Zrotation
										JOINT LFinger02
										{
											OFFSET 0.068741 -0.048944 -0.021924
											CHANNELS 3 Xrotation Yrotation Zrotation
											End Site
											{
												OFFSET 0.043071 -0.029159 -0.013165
											}
										}
									}
								}
							}
						}
					}
				}
				JOINT RClavicle
				{
					OFFSET -0.082320 -0.196776 0.635682
					CHANNELS 6 Xposition Yposition Zposition Xrotation Yrotation Zrotation
					JOINT RShoulder
					{
						OFFSET -0.354070 0.148140 0.079243
						CHANNELS 3 Xrotation Yrotation Zrotation
						JOINT RForearm
						{
							OFFSET -0.827894 0.007179 -0.031849
							CHANNELS 3 Xrotation Yrotation Zrotation
							JOINT RHand
							{
								OFFSET -0.690793 0.004141 -0.022116
								CHANNELS 3 Xrotation Yrotation Zrotation
								JOINT RFinger1
								{
									OFFSET -0.268525 -0.074399 0.014068
									CHANNELS 6 Xposition Yposition Zposition Xrotation Yrotation Zrotation
									JOINT RFinger11
									{
										OFFSET -0.099282 -0.017654 -0.027915
										CHANNELS 3 Xrotation Yrotation Zrotation
										JOINT RFinger12
										{
											OFFSET -0.067777 -0.012057 -0.019065
											CHANNELS 3 Xrotation Yrotation Zrotation
											End Site
											{
												OFFSET -0.050241 -0.008241 -0.016927
											}
										}
									}
								}
								JOINT RFinger2
								{
									OFFSET -0.272645 -0.006479 0.017549
									CHANNELS 6 Xposition Yposition Zposition Xrotation Yrotation Zrotation
									JOINT RFinger21
									{
										OFFSET -0.123823 0.000731 -0.003976
										CHANNELS 3 Xrotation Yrotation Zrotation
										JOINT RFinger22
										{
											OFFSET -0.068635 0.000420 -0.002187
											CHANNELS 3 Xrotation Yrotation Zrotation
											End Site
											{
												OFFSET -0.053355 -0.000073 -0.005646
											}
										}
									}
								}
								JOINT RFinger3
								{
									OFFSET -0.258124 0.060956 0.009055
									CHANNELS 6 Xposition Yposition Zposition Xrotation Yrotation Zrotation
									JOINT RFinger31
									{
										OFFSET -0.112148 0.007039 -0.009612
										CHANNELS 3 Xrotation Yrotation Zrotation
										JOINT RFinger32
										{
											OFFSET -0.063910 0.004024 -0.005456
											CHANNELS 3 Xrotation Yrotation Zrotation
											End Site
											{
												OFFSET -0.052933 0.002514 -0.008393
											}
										}
									}
								}
								JOINT RFinger4
								{
									OFFSET -0.238310 0.105269 -0.026502
									CHANNELS 6 Xposition Yposition Zposition Xrotation Yrotation Zrotation
									JOINT RFinger41
									{
										OFFSET -0.068601 0.019088 -0.016824
										CHANNELS 3 Xrotation Yrotation Zrotation
										JOINT RFinger42
										{
											OFFSET -0.050306 0.014006 -0.012319
											CHANNELS 3 Xrotation Yrotation Zrotation
											End Site
											{
												OFFSET -0.049999 0.011591 -0.015633
											}
										}
									}
								}
								JOINT RFinger0
								{
									OFFSET -0.053914 -0.042006 -0.043847
									CHANNELS 6 Xposition Yposition Zposition Xrotation Yrotation Zrotation
									JOINT RFinger01
									{
										OFFSET -0.101924 -0.077787 -0.037465
										CHANNELS 3 Xrotation Yrotation Zrotation
										JOINT RFinger02
										{
											OFFSET -0.067044 -0.048944 -0.026663
											CHANNELS 3 Xrotation Yrotation Zrotation
											End Site
											{
												OFFSET -0.042047 -0.029159 -0.016137
											}
										}
									}
								}
							}
						}
					}
				}
			}
		}
	}
	JOINT RThigh
	{
		OFFSET -0.311173 0.025206 0.106674
		CHANNELS 6 Xposition Yposition Zposition Xrotation Yrotation Zrotation
		JOINT RShin
		{
			OFFSET 0.019967 0.000000 -1.209208
			CHANNELS 3 Xrotation Yrotation Zrotation
			JOINT RFoot
			{
				OFFSET 0.041437 0.000000 -1.186608
				CHANNELS 3 Xrotation Yrotation Zrotation
				JOINT RToe
				{
					OFFSET 0.004554 -0.272888 -0.130418
					CHANNELS 3 Xrotation Yrotation Zrotation
					End Site
					{
						OFFSET 0.000000 -0.053653 0.000000
					}
				}
			}
		}
	}
	JOINT LThigh
	{
		OFFSET 0.302971 0.025206 0.128128
		CHANNELS 6 Xposition Yposition Zposition Xrotation Yrotation Zrotation
		JOINT LShin
		{
			OFFSET 0.064432 0.000000 -1.207664
			CHANNELS 3 Xrotation Yrotation Zrotation
			JOINT LFoot
			{
				OFFSET 0.041437 0.000000 -1.186609
				CHANNELS 3 Xrotation Yrotation Zrotation
				JOINT LToe
				{
					OFFSET 0.004554 -0.272891 -0.130420
					CHANNELS 3 Xrotation Yrotation Zrotation
					End Site
					{
						OFFSET 0.000000 -0.053653 0.000000
					}
				}
			}
		}
	}
}
MOTION
Frames: 4
Frame Time: 0.041667
1.047199 -0.930357 1.823894 31.599324 0.860016 -395.147071 -0.009069 0.154692 0.259715 0.000001 -0.000014 0.000002 0.648994 -3.360367 -1.093566 2.276055 -11.726227 -4.027562 -0.023078 0.012376 0.660877 -17.809445 -10.362904 -5.288556 -0.463976 1.017103 0.017102 0.037777 -0.196776 0.639876 -0.164069 -1.891382 -0.010579 -1.374679 -10.822259 -86.556754 0.004845 -0.003235 -0.145647 0.000002 -0.000000 0.000005 0.266886 -0.074399 0.032762 -0.000012 0.000007 0.000001 -0.000000 -0.000002 0.000010 0.000007 -0.000004 0.000006 0.270756 -0.006476 0.036524 -0.000008 0.000018 -0.000007 -0.000005 0.000014 0.000007 -0.000001 0.000004 -0.000011 0.256864 0.060956 0.027035 -0.000006 0.000021 -0.000002 -0.000002 0.000003 -0.000004 -0.000001 0.000004 0.000004 0.239578 0.105269 -0.009814 -0.000009 0.000015 -0.000001 -0.000007 0.000010 -0.000006 0.000003 0.000001 0.000012 0.056842 -0.042008 -0.039982 -0.000015 0.000014 -0.000015 -0.000003 0.000027 -0.000030 0.000009 0.000002 0.000028 -0.082320 -0.196776 0.635683 0.305040 -10.414067 0.276191 10.342827 -36.307868 -6.349559 -0.088471 0.001238 2.641541 0.000007 -0.000009 -0.000189 -0.268525 -0.074399 0.014068 -0.000014 -0.000015 0.000015 0.000002 -0.000003 0.000008 0.000003 -0.000008 0.000003 -0.272645 -0.006479 0.017550 -0.000005 -0.000015 0.000004 0.000001 0.000008 -0.000002 -0.000002 -0.000000 -0.000001 -0.258124 0.060956 0.009055 -0.000007 -0.000008 0.000003 0.000003 -0.000004 0.000002 0.000000 0.000005 -0.000000 -0.238310 0.105269 -0.026501 -0.000005 -0.000012 0.000010 -0.000002 -0.000000 -0.000002 0.000002 -0.000007 -0.000003 -0.053914 -0.042006 -0.043847 -0.000015 -0.000017 0.000010 -0.000004 0.000009 0.000007 0.000004 0.000004 -0.000008 -0.295231 0.001864 0.022416 -87.752911 -33.426550 -19.754336 76.292038 1.527035 1.944185 -4.691469 -0.133254 0.101161 -5.231116 0.008370 -0.182429 0.302971 0.025206 0.128129 -51.054363 6.339394 32.357697 64.764899 1.148033 1.810180 -1.109501 0.307675 -0.669130 -45.147947 0.589740 -1.418579 
1.055380 -0.924220 1.789399 31.816742 0.229162 -395.496039 -0.009070 0.154692 0.259715 0.000004 -0.000014 0.000005 0.730512 -3.416070 -1.115243 2.483448 -11.831974 -3.980700 -0.023078 0.012376 0.660876 -17.641670 -10.341705 -5.254433 -0.455334 1.127011 0.021229 0.037777 -0.196776 0.639876 -0.137947 -1.450874 -0.008375 -0.138991 -10.161404 -88.785281 0.004136 -0.003183 -0.122240 0.000005 -0.000001 0.000009 0.266887 -0.074398 0.032762 -0.000014 0.000008 -0.000005 -0.000005 -0.000012 0.000011 0.000000 -0.000012 0.000006 0.270757 -0.006476 0.036525 -0.000010 0.000018 -0.000002 -0.000006 0.000015 0.000000 -0.000001 0.000001 -0.000005 0.256864 0.060956 0.027035 -0.000006 0.000020 -0.000006 0.000002 0.000003 -0.000012 -0.000002 0.000006 0.000002 0.239578 0.105269 -0.009814 -0.000009 0.000016 -0.000005 -0.000004 0.000010 -0.000002 -0.000001 -0.000007 0.000009 0.056842 -0.042008 -0.039982 -0.000014 0.000015 -0.000014 -0.000009 0.000027 -0.000034 0.000011 -0.000005 0.000028 -0.082321 -0.196775 0.635682 0.263660 -10.530441 0.236665 9.834830 -37.978738 -6.658050 -0.075105 0.001004 2.242989 0.000009 -0.000008 -0.000183 -0.268525 -0.074399 0.014067 -0.000010 -0.000013 0.000011 0.000006 -0.000003 0.000005 -0.000001 -0.000010 0.000006 -0.272645 -0.006479 0.017549 0.000000 -0.000015 0.000004 0.000006 0.000008 -0.000003 0.000004 -0.000001 -0.000001 -0.258124 0.060956 0.009055 -0.000007 -0.000002 0.000005 0.000001 -0.000001 -0.000002 0.000003 0.000000 -0.000002 -0.238310 0.105269 -0.026502 -0.000002 -0.000011 0.000008 0.000001 -0.000001 -0.000002 0.000005 -0.000003 -0.000005 -0.053914 -0.042006 -0.043847 -0.000007 -0.000020 0.000012 -0.000001 0.000011 0.000003 0.000002 -0.000000 -0.000003 -0.295231 0.001864 0.022416 -90.252446 -33.393813 -20.390978 78.590226 1.605379 1.961645 -4.880800 -0.076328 -0.013675 -5.441747 0.009053 -0.189749 0.302971 0.025206 0.128128 -52.788483 6.406495 32.987799 66.986746 1.218866 1.841902 -1.768823 0.179449 -0.416121 -45.797962 0.605922 -1.434502 
1.060192 -0.919322 1.759589 31.975551 -0.214229 -395.716080 -0.009070 0.154692 0.259716 0.000004 -0.000015 0.000006 0.805343 -3.464320 -1.131928 2.681410 -11.928138 -3.936766 -0.023078 0.012376 0.660877 -17.468178 -10.299243 -5.210142 -0.454917 1.228203 0.024975 0.037777 -0.196776 0.639876 -0.115154 -1.003869 -0.006543 1.278564 -9.504251 -90.650920 0.001631 -0.002828 -0.051144 0.000007 -0.000003 0.000011 0.266886 -0.074399 0.032762 -0.000011 0.000009 0.000001 -0.000007 -0.000006 0.000007 0.000004 -0.000005 0.000006 0.270756 -0.006477 0.036525 -0.000008 0.000016 -0.000001 -0.000009 0.000016 -0.000002 -0.000005 0.000003 -0.000000 0.256864 0.060956 0.027035 -0.000008 0.000021 -0.000002 0.000001 0.000000 0.000002 -0.000001 0.000002 -0.000002 0.239578 0.105269 -0.009814 -0.000008 0.000016 0.000002 -0.000002 0.000011 -0.000004 0.000005 -0.000009 0.000015 0.056842 -0.042009 -0.039981 -0.000015 0.000015 -0.000015 -0.000013 0.000026 -0.000035 0.000009 -0.000005 0.000028 -0.082320 -0.196776 0.635682 0.226244 -10.660451 0.201211 9.566209 -39.978583 -6.519651 -0.048880 -0.000659 1.445745 0.000010 -0.000009 -0.000177 -0.268525 -0.074399 0.014067 -0.000015 -0.000011 0.000011 -0.000001 0.000002 0.000005 -0.000003 -0.000012 0.000007 -0.272645 -0.006479 0.017550 -0.000007 -0.000012 -0.000000 0.000004 0.000005 -0.000002 0.000000 -0.000002 0.000003 -0.258125 0.060956 0.009055 -0.000011 -0.000006 0.000002 -0.000001 0.000002 0.000003 -0.000002 -0.000000 -0.000000 -0.238310 0.105269 -0.026502 -0.000007 -0.000010 0.000009 -0.000003 -0.000000 -0.000003 0.000006 -0.000007 -0.000006 -0.053915 -0.042006 -0.043847 -0.000012 -0.000015 0.000009 0.000003 0.000009 0.000005 0.000005 0.000003 -0.000003 -0.295231 0.001864 0.022416 -92.373992 -33.386395 -21.015411 80.497632 1.670894 1.973740 -4.781494 0.057090 -0.261239 -5.830757 0.010387 -0.203270 0.302971 0.025206 0.128129 -54.222905 6.367142 33.539282 69.000996 1.284097 1.868275 -2.153172 -0.120779 0.171563 -46.683687 0.628273 -1.455901 
1.063869 -0.913742 1.735096 32.153030 -0.638085 -395.870934 -0.009070 0.154691 0.259715 0.000004 -0.000014 0.000009 0.873077 -3.505198 -1.144971 2.873056 -12.017529 -3.900246 -0.023078 0.012376 0.660877 -17.289902 -10.235605 -5.155986 -0.455005 1.321045 0.028458 0.037777 -0.196776 0.639876 -0.095458 -0.552623 -0.005054 2.885192 -8.853613 -91.958149 0.001096 -0.002777 -0.031963 0.000003 0.000002 0.000003 0.266887 -0.074398 0.032761 -0.000013 0.000016 -0.000004 -0.000003 -0.000006 0.000008 0.000005 -0.000000 0.000007 0.270757 -0.006476 0.036524 -0.000012 0.000019 -0.000007 -0.000007 0.000013 -0.000001 -0.000003 0.000005 -0.000005 0.256864 0.060956 0.027035 -0.000011 0.000025 -0.000002 0.000000 0.000005 -0.000006 -0.000005 0.000004 0.000001 0.239578 0.105269 -0.009815 -0.000014 0.000021 -0.000003 -0.000003 0.000003 -0.000010 -0.000002 -0.000007 0.000009 0.056842 -0.042008 -0.039982 -0.000020 0.000016 -0.000015 -0.000010 0.000021 -0.000032 0.000007 0.000001 0.000027 -0.082320 -0.196776 0.635682 0.192688 -10.801775 0.169743 9.617208 -42.467043 -5.990240 -0.028017 -0.000219 0.815714 0.000011 -0.000008 -0.000167 -0.268525 -0.074399 0.014068 -0.000006 -0.000013 0.000006 -0.000002 0.000002 0.000003 -0.000001 -0.000010 0.000001 -0.272645 -0.006479 0.017550 -0.000002 -0.000011 -0.000001 0.000001 0.000007 -0.000006 -0.000004 -0.000002 -0.000002 -0.258124 0.060956 0.009055 -0.000004 -0.000006 0.000000 0.000004 -0.000004 0.000005 -0.000000 0.000004 -0.000003 -0.238310 0.105269 -0.026502 -0.000001 -0.000009 0.000008 -0.000004 -0.000003 -0.000001 0.000002 -0.000004 -0.000001 -0.053914 -0.042006 -0.043847 -0.000009 -0.000017 0.000008 0.000001 0.000009 0.000006 0.000003 0.000005 -0.000005 -0.295231 0.001864 0.022416 -94.159137 -33.326286 -21.596474 81.953609 1.721148 1.981498 -4.789300 0.185405 -0.503605 -5.963016 0.010861 -0.207863 0.302971 0.025205 0.128129 -55.489710 6.287056 34.098811 70.663689 1.338612 1.888300 -2.419473 -0.375448 0.662677 -47.486982 0.648821 -1.475007 
